<svg width="16px" height="16px" viewBox="0 0 16 16" version="1.1" xmlns="http://www.w3.org/2000/svg" xmlns:xlink="http://www.w3.org/1999/xlink">
    <g id="Page-1" stroke="none" stroke-width="1" fill="none" fill-rule="evenodd">
        <g id="Registro---cliente" transform="translate(-183.000000, -242.000000)" fill="#084B8A" fill-rule="nonzero">
            <path d="M198,245.428571 L195.5,245.428571 L193.8,242.457143 C193.6,242.228571 193.3,242 193,242 L189,242 C188.7,242 188.4,242.228571 188.2,242.457143 L186.5,245.428571 L184,245.428571 C183.4,245.428571 183,245.885714 183,246.571429 L183,256.857143 C183,257.542857 183.4,258 184,258 L198,258 C198.6,258 199,257.542857 199,256.857143 L199,246.571429 C199,245.885714 198.6,245.428571 198,245.428571 Z M191,255 C189.3,255 188,253.483333 188,251.5 C188,249.516667 189.3,248 191,248 C192.7,248 194,249.516667 194,251.5 C194,253.483333 192.7,255 191,255 Z" id="Shape"></path>
        </g>
    </g>
</svg>