<svg width="11px" height="14px" viewBox="0 0 11 14" version="1.1" xmlns="http://www.w3.org/2000/svg" xmlns:xlink="http://www.w3.org/1999/xlink">
    <g id="Page-1" stroke="none" stroke-width="1" fill="none" fill-rule="evenodd">
        <g id="Login-/-Registro" transform="translate(-56.000000, -328.000000)" fill="#084B8A" fill-rule="nonzero">
            <path d="M61.25,329.75 C61.775,329.75 62.2125,329.925 62.5625,330.3625 L63.175,330.975 L64.4875,329.8375 L63.875,329.1375 C63.175,328.4375 62.2125,328 61.25,328 C59.325,328 57.75,329.575 57.75,331.5 L57.75,332.8125 C56.7,333.775 56,335.175 56,336.75 C56,339.6375 58.3625,342 61.25,342 C64.1375,342 66.5,339.6375 66.5,336.75 C66.5,333.8625 64.1375,331.5 61.25,331.5 C60.6375,331.5 60.025,331.5875 59.5,331.85 L59.5,331.5 C59.5,330.5375 60.2875,329.75 61.25,329.75 Z M61.25,334.125 C62.2125,334.125 63,334.9125 63,335.875 C63,336.4875 62.65,337.1 62.125,337.3625 L62.125,339.375 L60.375,339.375 L60.375,337.3625 C59.85,337.1 59.5,336.4875 59.5,335.875 C59.5,334.9125 60.2875,334.125 61.25,334.125 Z" id="lock-ico"></path>
        </g>
    </g>
</svg>