
<svg width="127px" height="64px" viewBox="-15 0 164 64" version="1.1" xmlns="http://www.w3.org/2000/svg" xmlns:xlink="http://www.w3.org/1999/xlink">
    <defs>
        <polygon id="path-1" points="0 195 195 195 195 0 0 0"></polygon>
    </defs>
    <g id="Page-1" stroke="none" stroke-width="1" fill="none" fill-rule="evenodd">
        <g id="Login-/-Registro" transform="translate(-124.000000, -73.000000)">
            <g id="FECIT-LOGO-final-_1_-_1_-_1_" transform="translate(90.000000, 8.000000)">
                <g id="g10" transform="translate(97.500000, 97.500000) scale(-1, 1) rotate(-180.000000) translate(-97.500000, -97.500000) ">
                    <g id="g12">
                        <g id="g14-Clipped">
                            <mask id="mask-2" fill="white">
                                <use xlink:href="#path-1"></use>
                            </mask>
                            <g id="path16"></g>
                            <g id="g14" mask="url(#mask-2)">
                                <g transform="translate(34.666667, 66.625000)">
                                    <g id="g20" transform="translate(0.102086, 19.441717)">
                                        <path d="M13.5416667,43.3333333 C12.2891528,43.3333333 11.1242083,43.1206389 10.0470139,42.6959722 C8.96981944,42.2705833 8.04284722,41.6619306 7.26645833,40.8700139 C6.48970833,40.0780972 5.87979167,39.1276528 5.43761111,38.0192222 C4.99488889,36.9109722 4.77370833,35.6727222 4.77370833,34.3057361 L4.77370833,29.2543333 L0.915777778,29.2543333 C0.631763889,29.2543333 0.410583333,29.1830139 0.251875,29.0412778 C0.0929861111,28.8995417 0.0140833333,28.6781806 0.0140833333,28.3777361 L0.0140833333,27.5760694 C0.0140833333,27.2586528 0.0929861111,27.0161667 0.251875,26.8495139 C0.410583333,26.6823194 0.631763889,26.5989028 0.915777778,26.5989028 L4.77370833,26.5989028 L4.77370833,1.09669444 C4.77370833,0.478291667 5.04706944,0.169361111 5.59343056,0.169361111 L6.76054167,0.169361111 C7.00880556,0.169361111 7.22023611,0.244833333 7.39393056,0.394694444 C7.56780556,0.545097222 7.65465278,0.779097222 7.65465278,1.09669444 L7.65465278,26.5989028 L13.0908194,26.5989028 C13.3744722,26.5989028 13.5956528,26.6823194 13.7545417,26.8495139 C13.91325,27.0161667 13.9926944,27.2586528 13.9926944,27.5760694 L13.9926944,28.3777361 C13.9926944,28.6781806 13.91325,28.8995417 13.7545417,29.0412778 C13.5956528,29.1830139 13.3744722,29.2543333 13.0908194,29.2543333 L7.65465278,29.2543333 L7.65465278,33.2626667 C7.65465278,34.4985694 7.80956944,35.5674583 8.11958333,36.4693333 C8.42959722,37.3710278 8.85318056,38.1185278 9.38943056,38.7114722 C9.92568056,39.3040556 10.5587083,39.7465972 11.2879722,40.0392778 C12.0166944,40.330875 12.8003056,40.4774861 13.6388056,40.4774861 C13.8899583,40.4774861 14.0994028,40.5475417 14.2669583,40.688375 C14.4345139,40.8295694 14.5188333,41.0402778 14.5188333,41.3217639 L14.5188333,42.38975 C14.5188333,42.6710556 14.434875,42.8989167 14.2682222,43.0727917 C14.1010278,43.2463056 13.8587222,43.3333333 13.5416667,43.3333333" id="path22" fill="#0F538B"></path>
                                    </g>
                                    <g id="g24" transform="translate(16.879922, 18.906225)">
                                        <path d="M3.25,18.4166667 C3.46684722,19.7358056 3.86370833,20.9968056 4.43986111,22.1994861 C5.01601389,23.401625 5.73011111,24.4954306 6.58179167,25.4809028 C7.43347222,26.466375 8.41063889,27.3180556 9.51293056,28.036125 C10.6150417,28.7541944 11.80075,29.2803333 13.0700556,29.6145417 C13.8381389,29.8312083 14.4894028,29.9693333 15.0240278,30.0280139 C15.5584722,30.0863333 16.1095278,30.1154028 16.677375,30.1154028 C18.3473333,30.1154028 19.9466944,29.8189306 21.4747361,29.2265278 C23.0029583,28.6334028 24.3681389,27.8145833 25.5706389,26.7711528 C26.7727778,25.7271806 27.7707083,24.4916389 28.56425,23.063625 C29.35725,21.6356111 29.8543194,20.0862639 30.0547361,18.4166667 L3.25,18.4166667 Z M32.9856944,16.3121111 C32.9856944,16.3455139 32.9815417,16.3747639 32.9734167,16.4000417 C32.96475,16.4247778 32.9604167,16.4457222 32.9604167,16.4625139 L32.9604167,16.4374167 C32.9102222,18.1071944 32.6764028,19.6773056 32.2591389,21.1472083 C31.841875,22.61675 31.2736667,23.9611667 30.5555972,25.1804583 C29.8375278,26.3993889 28.9815139,27.493375 27.9879167,28.4620556 C26.9943194,29.4307361 25.8961806,30.2490139 24.6938611,30.91725 C23.4913611,31.5849444 22.2094167,32.0946528 20.8485694,32.4452917 C19.4871806,32.7962917 18.0802917,32.9714306 16.6273611,32.9714306 C15.0742222,32.9714306 13.5918611,32.7749861 12.1808194,32.3828194 C10.7694167,31.9902917 9.45009722,31.4345417 8.22268056,30.7170139 C6.99526389,29.9984028 5.884125,29.1385972 4.89088889,28.1365139 C3.89693056,27.1344306 3.04958333,26.0236528 2.348125,24.8047222 C1.64684722,23.5854306 1.10373611,22.2744167 0.719694444,20.8716806 C0.335472222,19.4687639 0.143541667,18.0069861 0.143541667,16.4874306 C0.143541667,14.2328333 0.582111111,12.1114861 1.45870833,10.1244722 C2.33566667,8.13673611 3.52119444,6.39545833 5.01601389,4.90118056 C6.51047222,3.40636111 8.25590278,2.22895833 10.2517639,1.36915278 C12.2474444,0.508805556 14.3727639,0.0785416667 16.6273611,0.0785416667 C18.481125,0.0785416667 20.1927917,0.354430556 21.7629028,0.905486111 C23.3324722,1.45636111 24.7940694,2.20783333 26.1469722,3.15990278 C26.5140417,3.41051389 26.8314583,3.66130556 27.0983194,3.91155556 C27.3657222,4.16198611 27.5910556,4.40411111 27.7750417,4.63811111 C27.7750417,4.72170833 27.7329722,4.80476389 27.6499167,4.88890278 C27.7161806,4.95516667 27.750125,5.02197222 27.750125,5.08931944 C27.750125,5.20577778 27.6876528,5.37279167 27.5619861,5.59 C27.4368611,5.80684722 27.2321111,6.11631944 26.9484583,6.51679167 C26.7814444,6.734 26.6310417,6.84251389 26.49725,6.84251389 C26.38025,6.84251389 26.2509722,6.79665278 26.1092361,6.70493056 C25.9667778,6.61284722 25.8125833,6.50451389 25.6455694,6.37938889 C25.478375,6.25372222 25.3075694,6.12011111 25.1324306,5.978375 C24.9569306,5.83663889 24.7854028,5.71530556 24.6185694,5.61491667 C24.0839444,5.21426389 23.5204306,4.84665278 22.9276667,4.51316667 C22.3347222,4.17877778 21.708375,3.89025 21.0489861,3.64884722 C20.388875,3.40636111 19.6749583,3.21876389 18.906875,3.08497222 C18.1386111,2.95118056 17.3118472,2.884375 16.4269444,2.884375 C14.8902361,2.884375 13.4333333,3.13516667 12.0555139,3.63584722 C10.6776944,4.13743056 9.42897222,4.82986111 8.31025,5.71530556 C7.19134722,6.60038889 6.22663889,7.66079167 5.41684722,8.896875 C4.60669444,10.1325972 3.99280556,11.4938056 3.57554167,12.9805 C3.45854167,13.3977639 3.38776389,13.8446389 3.36266667,14.3205833 C3.33756944,14.7967083 3.30019444,15.1762361 3.25,15.46025 L32.1840278,15.46025 C32.7182917,15.46025 32.9856944,15.7444444 32.9856944,16.3121111 Z" id="path26" fill="#0F538B" fill-rule="nonzero"></path>
                                    </g>
                                    <g id="g28" transform="translate(52.366582, 18.911606)">
                                        <path d="M27.4444444,5.59722222 C27.3195,5.82255556 27.1145694,6.12715278 26.8310972,6.511375 C26.6465694,6.71197222 26.4800972,6.81218056 26.3296944,6.81218056 C26.2294861,6.81218056 26.1043611,6.76595833 25.9539583,6.67423611 C25.8035556,6.58269444 25.6406944,6.47418056 25.4655556,6.34869444 C25.2902361,6.22356944 25.1145556,6.08995833 24.9394167,5.94804167 C24.7640972,5.80576389 24.6174861,5.69309722 24.5010278,5.6095 C23.933,5.20902778 23.3564861,4.84123611 22.7722083,4.50775 C22.1879306,4.17336111 21.5614028,3.88501389 20.8935278,3.64361111 C20.2256528,3.40094444 19.5157083,3.21334722 18.7642361,3.07973611 C18.0127639,2.94576389 17.194125,2.87895833 16.3090417,2.87895833 C14.5052917,2.87895833 12.7974167,3.24620833 11.1861389,3.98161111 C9.57413889,4.71629167 8.15894444,5.70988889 6.93965278,6.96258333 C5.72072222,8.21491667 4.756375,9.66838889 4.04643056,11.3217361 C3.33648611,12.9750833 2.98169444,14.7288194 2.98169444,16.5824028 C2.98169444,18.4359861 3.34876389,20.1897222 4.08416667,21.8430694 C4.81884722,23.4964167 5.80377778,24.9410417 7.03986111,26.177125 C8.27594444,27.4130278 9.70359722,28.3898333 11.3242639,29.1080833 C12.9434861,29.8257917 14.6389028,30.1854583 16.4094306,30.1854583 C17.8119861,30.1854583 19.03525,30.0388472 20.0795833,29.7468889 C21.1231944,29.4543889 22.0120694,29.1120556 22.7472917,28.7197083 C23.4823333,28.3271806 24.0707639,27.9391667 24.5134861,27.5549444 C24.9560278,27.1703611 25.2774167,26.8787639 25.4778333,26.6781667 C25.6618194,26.4943611 25.8201667,26.4026389 25.9539583,26.4026389 C26.0375556,26.4026389 26.1043611,26.4275556 26.154375,26.47775 C26.2045694,26.5277639 26.2460972,26.5692917 26.2795,26.602875 L27.2068333,27.7051667 C27.4235,27.9557778 27.532375,28.1645 27.532375,28.3315139 C27.532375,28.5151389 27.4693611,28.6651806 27.3442361,28.7825417 C27.2191111,28.8991806 27.0811667,29.0243056 26.9307639,29.1582778 L26.8805694,29.2333889 L26.8805694,29.2084722 C26.2294861,29.7427361 25.5114167,30.2392639 24.7263611,30.6989583 C23.9414861,31.1579306 23.1065972,31.5547917 22.2211528,31.889 C21.3360694,32.2226667 20.41325,32.4857361 19.4530556,32.6778472 C18.4925,32.8695972 17.5117222,32.9661944 16.5096389,32.9661944 C15.0227639,32.9661944 13.5824722,32.7695694 12.1884028,32.3774028 C10.7936111,31.984875 9.48638889,31.429125 8.26745833,30.7115972 C7.04852778,29.9929861 5.93359722,29.1331806 4.92356944,28.1310972 C3.91263889,27.1290139 3.04416667,26.0184167 2.31797222,24.7994861 C1.59123611,23.5800139 1.02790278,22.269 0.626888889,20.8662639 C0.226416667,19.4633472 0.0258194444,18.0102361 0.0258194444,16.5072917 C0.0258194444,15.0043472 0.226416667,13.5552083 0.626888889,12.1605972 C1.02790278,10.7659861 1.59123611,9.45930556 2.31797222,8.240375 C3.04416667,7.02090278 3.91263889,5.91030556 4.92356944,4.90822222 C5.93359722,3.90613889 7.04852778,3.04561111 8.26745833,2.32826389 C9.48638889,1.60947222 10.7936111,1.05426389 12.1884028,0.662277778 C13.5824722,0.269930556 15.0227639,0.073125 16.5096389,0.073125 C18.3798333,0.073125 20.0956528,0.349194444 21.6572778,0.900069444 C23.2192639,1.45094444 24.6763472,2.20241667 26.0288889,3.15466667 C26.7307083,3.63909722 27.2649722,4.13201389 27.6325833,4.63269444 C27.6325833,4.6995 27.5986389,4.78309722 27.532375,4.88348611 C27.5986389,4.94975 27.6325833,5.01655556 27.6325833,5.08390278 C27.6325833,5.20036111 27.5695694,5.37188889 27.4444444,5.59722222" id="path30" fill="#0F538B"></path>
                                    </g>
                                    <g id="g32" transform="translate(85.374033, 55.330853)">
                                        <path d="M0.361111111,0.180555556 C0.544375,0.063375 0.853305556,0.00505555556 1.28772222,0.00505555556 L2.18959722,0.00505555556 C2.64080556,0.00505555556 2.94504167,0.0716805556 3.10393056,0.205652778 C3.26245833,0.339083333 3.34226389,0.648013889 3.34226389,1.13226389 L3.34226389,2.08433333 C3.34226389,2.38513889 3.30019444,2.63972222 3.21659722,2.84844444 C3.13318056,3.05716667 2.93240278,3.17813889 2.61552778,3.21190278 L1.26298611,3.21190278 L0.786861111,3.21190278 C0.502847222,3.17813889 0.314708333,3.0615 0.222986111,2.86126389 C0.131444444,2.66066667 0.0855833333,2.40138889 0.0855833333,2.08433333 L0.0855833333,0.806722222 C0.0855833333,0.506277778 0.177125,0.297194444 0.361111111,0.180555556" id="path34" fill="#0F538B"></path>
                                    </g>
                                    <g id="g36" transform="translate(85.572229, 19.498862)">
                                        <path d="M2.16666667,31.7777778 L0.838861111,31.7777778 C0.304597222,31.7777778 0.0371944444,31.510375 0.0371944444,30.9761111 L0.0371944444,0.913972222 C0.0371944444,0.379166667 0.321388889,0.112305556 0.889055556,0.112305556 L2.192125,0.112305556 C2.70959722,0.112305556 2.96815278,0.379166667 2.96815278,0.913972222 L2.96815278,30.9761111 C2.96815278,31.510375 2.70093056,31.7777778 2.16666667,31.7777778" id="path38" fill="#0F538B"></path>
                                    </g>
                                    <g id="g40" transform="translate(90.020161, 23.592472)">
                                        <path d="M1.625,34.4861111 C1.90558333,34.5097639 2.28529167,34.5939028 2.76484722,34.7385278 L3.31626389,34.9057222 C3.87616667,35.0750833 4.36240278,35.0696667 4.77425,34.88875 C5.187,34.708375 5.55244444,34.4090139 5.87040278,33.9903056 C6.18908333,33.5721389 6.47093056,33.0597222 6.71486111,32.4532361 C6.96005556,31.8462083 7.18845833,31.1916944 7.40133333,30.4884306 L8.00023611,28.5080972 L8.01125,28.5117083 L9.05793056,25.0528056 L4.90948611,23.798125 C4.63775,23.7161528 4.4525,23.6076389 4.35355556,23.473125 C4.25443056,23.3386111 4.24684722,23.1353056 4.32881944,22.8635694 L4.66934722,21.7369028 C4.75222222,21.464625 4.873375,21.2921944 5.03551389,21.2190694 C5.19711111,21.146125 5.41359722,21.1506389 5.68551389,21.2326111 L9.83359722,22.4872917 L15.3636528,4.20531944 L16.5358194,0.330777778 C16.5679583,0.224972222 16.6020833,0.122777778 16.63675,0.0207638889 C17.4178333,0.622194444 18.3482361,1.038375 19.3633194,1.20466667 C19.1349167,1.78118056 18.9202361,2.39795833 18.72,3.05933333 L18.1212778,5.03948611 L12.5912222,23.3212778 L17.96275,24.9464583 C18.4903333,25.1057083 18.6692639,25.4650139 18.4997222,26.0249167 L18.20975,26.9838472 C18.0551944,27.4955417 17.7139444,27.6714028 17.1867222,27.5119722 L11.8151944,25.8871528 L9.48711111,33.583875 C9.44540278,33.7221806 9.39394444,33.8409861 9.33526389,33.9424583 C9.03915278,34.6998889 8.67244444,35.334 8.23315278,35.8433472 C7.66043056,36.5074306 7.00826389,36.9913194 6.27683333,37.2930278 C5.54522222,37.5952778 4.75908333,37.7370139 3.91841667,37.717875 C3.07775,37.6996389 2.22606944,37.5597083 1.36301389,37.2984444 C1.26677778,37.269375 1.13623611,37.2256806 0.970486111,37.1671806 C0.805277778,37.1081389 0.650361111,37.0308611 0.504472222,36.9344444 C0.359666667,36.8383889 0.244472222,36.7286111 0.158708333,36.6070972 C0.073125,36.4855833 0.0530833333,36.3526944 0.0960555556,36.2087917 C0.110680556,36.1607639 0.132347222,36.0890833 0.161416667,35.9928472 C0.190486111,35.8971528 0.219555556,35.8012778 0.248625,35.7052222 C0.277513889,35.6089861 0.321930556,35.4919861 0.380972222,35.3525972 L0.359486111,35.4248194 C0.421958333,35.217 0.494902778,35.0340972 0.577777778,34.8759306 C0.660472222,34.7174028 0.785597222,34.6070833 0.952972222,34.5446111 C1.12016667,34.4812361 1.34369444,34.4620972 1.625,34.4861111" id="path42" fill="#0F538B"></path>
                                    </g>
                                    <g id="g44" transform="translate(114.856264, 20.184486)">
                                        <path d="M10.6527778,5.05555556 C10.5570833,5.37206944 10.4131806,5.55786111 10.2225139,5.61220833 C10.0314861,5.66727778 9.80019444,5.65355556 9.52809722,5.57104167 L0.0355694444,2.70111111 C0.696041667,1.97672222 1.18480556,1.09326389 1.4365,0.114833333 L10.2185417,2.77044444 C10.3783333,2.81847222 10.4872083,2.92084722 10.544625,3.07648611 C10.5735139,3.15430556 10.5915694,3.23772222 10.5996944,3.32727778 C10.6043889,3.31102778 10.6155833,3.37458333 10.6336389,3.51830556 C10.6507917,3.66166667 10.6650556,3.83084722 10.6767917,4.02458333 C10.6874444,4.21795833 10.6937639,4.41422222 10.694125,4.61409722 C10.6950278,4.81288889 10.6818472,4.96040278 10.6527778,5.05555556" id="path46" fill="#0F538B"></path>
                                    </g>
                                    <g id="g48" transform="translate(104.961314, 13.310501)">
                                        <path d="M5.41666667,2.52777778 C3.79654167,2.52777778 2.48318056,3.84095833 2.48318056,5.46126389 C2.48318056,7.08138889 3.79654167,8.39438889 5.41666667,8.39438889 C7.03661111,8.39438889 8.34997222,7.08138889 8.34997222,5.46126389 C8.34997222,3.84095833 7.03661111,2.52777778 5.41666667,2.52777778 M5.87004167,10.7248194 C2.96255556,10.9756111 0.403,8.82158333 0.152930556,5.91445833 C-0.0975,3.00733333 2.05616667,0.447597222 4.96311111,0.197347222 C7.87077778,-0.0527222222 10.4301528,2.10094444 10.6802222,5.00788889 C10.9308333,7.91519444 8.77716667,10.4745694 5.87004167,10.7248194" id="path50" fill="#0F538B" fill-rule="nonzero"></path>
                                    </g>
                                    <g id="g52" transform="translate(110.002587, 24.417665)">
                                        <path d="M11.0138889,13.9027778 L13.9401528,4.50197222 L4.53934722,1.57625 L1.61380556,10.9770556 L11.0138889,13.9027778 Z M15.4201667,3.7245 L11.7917222,15.3827917 L0.133791667,11.7545278 L3.761875,0.0962361111 L15.4201667,3.7245 Z" id="path54" fill="#0F538B" fill-rule="nonzero"></path>
                                    </g>
                                    <g id="g56" transform="translate(115.667879, 27.941243)">
                                        <polygon id="path58" fill="#0F538B" points="1.80555556 4.15277778 2.95966667 0.13 3.527875 0.293222222 2.37394444 4.31473611 4.49745833 3.03495833 4.80223611 3.54177778 1.76204167 5.37351389 0.156361111 2.20855556 0.683402778 1.94043056"></polygon>
                                    </g>
                                    <g id="g60" transform="translate(23.795074, 2.835462)">
                                        <path d="M4.15277778,9.56944444 L2.49581944,9.56944444 L2.49581944,11.9439306 C2.49581944,12.0277083 2.47975,12.0941528 2.44797222,12.143625 C2.41619444,12.1929167 2.35155556,12.2176528 2.25369444,12.2176528 C2.22426389,12.2176528 2.18165278,12.2089861 2.12531944,12.1916528 C2.06916667,12.1745 2.01409722,12.1559028 1.96029167,12.1362222 C1.90648611,12.1163611 1.86008333,12.0979444 1.82090278,12.0807917 C1.78190278,12.0634583 1.76475,12.0549722 1.76980556,12.0549722 C1.74525,12.0450417 1.72322222,12.0327639 1.70390278,12.0179583 C1.66454167,11.9881667 1.64504167,11.9488056 1.64504167,11.8995139 L1.64504167,9.56944444 L0.365263889,9.56944444 C0.281486111,9.56944444 0.219736111,9.55463889 0.180375,9.52502778 C0.140833333,9.49541667 0.121152778,9.43854167 0.121152778,9.35494444 L0.121152778,9.00719444 C0.121152778,8.92323611 0.140833333,8.86419444 0.180375,8.82952778 C0.219736111,8.79504167 0.281486111,8.77788889 0.365263889,8.77788889 L1.64504167,8.77788889 L1.64504167,1.94277778 C1.64504167,1.60730556 1.69758333,1.32130556 1.80266667,1.08459722 C1.90775,0.847888889 2.05075,0.655597222 2.23166667,0.507722222 C2.41258333,0.359666667 2.62256944,0.252416667 2.86198611,0.185791667 C3.10104167,0.119166667 3.35381944,0.086125 3.62013889,0.086125 C3.64975,0.086125 3.690375,0.0872083333 3.74219444,0.0897361111 C3.79401389,0.0922638889 3.84438889,0.100930556 3.89386111,0.115736111 C3.94315278,0.130361111 3.98504167,0.151486111 4.01970833,0.178388889 C4.05401389,0.205652778 4.07134722,0.241402778 4.07134722,0.285638889 L4.07134722,0.352263889 L4.07134722,0.440916667 C4.07134722,0.470527778 4.06881944,0.507722222 4.06394444,0.552138889 L4.06394444,0.529930556 C4.06394444,0.593847222 4.05906944,0.651805556 4.04913889,0.703625 C4.03920833,0.755444444 4.01338889,0.797333333 3.9715,0.829472222 C3.92961111,0.861430556 3.86786111,0.885986111 3.78661111,0.9035 C3.70518056,0.920652778 3.59052778,0.929138889 3.44265278,0.929138889 L3.27256944,0.929138889 C3.09977778,0.929138889 2.96291667,0.972472222 2.86198611,1.05877778 C2.760875,1.14508333 2.68305556,1.26081944 2.62888889,1.40634722 C2.57454167,1.551875 2.53897222,1.72069444 2.52163889,1.91316667 C2.50430556,2.10545833 2.49581944,2.31002778 2.49581944,2.52705556 L2.49581944,8.77788889 L4.15277778,8.77788889 C4.31545833,8.77788889 4.39688889,8.86419444 4.39688889,9.03680556 L4.39688889,9.33255556 C4.39688889,9.49054167 4.31545833,9.56944444 4.15277778,9.56944444" id="path62" fill="#0F538B"></path>
                                    </g>
                                    <g id="g64" transform="translate(29.477897, 2.887119)">
                                        <path d="M7.58333333,9.56944444 L7.19875,9.56944444 C7.04076389,9.56944444 6.96204167,9.49054167 6.96204167,9.33273611 L6.96204167,3.82922222 C6.95193056,3.39516667 6.86327778,2.99704167 6.69554167,2.63448611 C6.52798611,2.27211111 6.30608333,1.95993056 6.02983333,1.69866667 C5.75358333,1.43722222 5.43815278,1.23391667 5.083,1.08838889 C4.72802778,0.943041667 4.35554167,0.870097222 3.96608333,0.870097222 C3.49266667,0.870097222 3.06727778,0.955319444 2.68991667,1.12540278 C2.31273611,1.29566667 1.99098611,1.52352778 1.72466667,1.80952778 C1.45834722,2.09552778 1.25125,2.42106944 1.10319444,2.78615278 C0.955319444,3.15105556 0.876416667,3.53076389 0.866486111,3.92527778 L0.866486111,9.25130556 C0.866486111,9.36469444 0.848069444,9.446125 0.811055556,9.49559722 C0.774041667,9.54470833 0.69875,9.56944444 0.585361111,9.56944444 L0.304416667,9.56944444 C0.210708333,9.56944444 0.136680556,9.54236111 0.0825138889,9.48819444 C0.0281666667,9.43384722 0.00108333339,9.35241667 0.00108333339,9.24390278 L0.00108333339,3.96229167 C0.00108333339,3.41484722 0.0984027778,2.90080556 0.293222222,2.41998611 C0.488041667,1.93916667 0.757972222,1.52118056 1.10319444,1.16620833 C1.44841667,0.811055556 1.86026389,0.530111111 2.33855556,0.322833333 C2.81684722,0.115736111 3.34208333,0.0120972222 3.91426389,0.0120972222 C4.25930556,0.0120972222 4.57997222,0.050375 4.87590278,0.12675 C5.17183333,0.203125 5.44555556,0.312902778 5.69706944,0.455902778 C5.94840278,0.598902778 6.17788889,0.771513889 6.38498611,0.973916667 C6.59208333,1.17595833 6.77697222,1.40291667 6.93983333,1.65425 L6.96204167,1.19563889 L6.96204167,0.411486111 C6.96204167,0.234 7.05809722,0.145347222 7.25038889,0.145347222 L7.55372222,0.145347222 C7.73608333,0.145347222 7.82744444,0.248805556 7.82744444,0.455902778 L7.82744444,9.33273611 C7.82744444,9.49054167 7.74601389,9.56944444 7.58333333,9.56944444" id="path66" fill="#0F538B"></path>
                                    </g>
                                    <g id="g68" transform="translate(43.375385, 2.958529)">
                                        <path d="M4.15277778,12.8194444 C3.783,12.8194444 3.43886111,12.7566111 3.12090278,12.6313056 C2.80276389,12.5058194 2.52904167,12.3259861 2.29973611,12.0921667 C2.07043056,11.8583472 1.89041667,11.5775833 1.75969444,11.2504167 C1.62897222,10.9230694 1.56379167,10.5574444 1.56379167,10.1537222 L1.56379167,8.66233333 L0.424486111,8.66233333 C0.340527778,8.66233333 0.275347222,8.64102778 0.228583333,8.59931944 C0.181458333,8.55743056 0.158166667,8.49206944 0.158166667,8.40323611 L0.158166667,8.16652778 C0.158166667,8.07281944 0.181458333,8.00113889 0.228583333,7.95202778 C0.275347222,7.90273611 0.340527778,7.87818056 0.424486111,7.87818056 L1.56379167,7.87818056 L1.56379167,0.347569444 C1.56379167,0.165027778 1.64431944,0.0738472222 1.80573611,0.0738472222 L2.15041667,0.0738472222 C2.22372222,0.0738472222 2.28619444,0.0960555556 2.33747222,0.140472222 C2.38875,0.184708333 2.41438889,0.253861111 2.41438889,0.347569444 L2.41438889,7.87818056 L4.01970833,7.87818056 C4.10348611,7.87818056 4.16866667,7.90273611 4.21561111,7.95202778 C4.262375,8.00113889 4.28584722,8.07281944 4.28584722,8.16652778 L4.28584722,8.40323611 C4.28584722,8.49206944 4.262375,8.55743056 4.21561111,8.59931944 C4.16866667,8.64102778 4.10348611,8.66233333 4.01970833,8.66233333 L2.41438889,8.66233333 L2.41438889,9.84569444 C2.41438889,10.2107778 2.46006944,10.5263889 2.55161111,10.7925278 C2.64333333,11.0588472 2.76827778,11.2796667 2.926625,11.454625 C3.08497222,11.6295833 3.27184722,11.7604861 3.48725,11.8466111 C3.70247222,11.9330972 3.93394444,11.97625 4.18148611,11.97625 C4.25569444,11.97625 4.31744444,11.9968333 4.36691667,12.0385417 C4.41638889,12.0800694 4.44130556,12.1423611 4.44130556,12.2255972 L4.44130556,12.5408472 C4.44130556,12.6239028 4.41656944,12.69125 4.36727778,12.7425278 C4.31798611,12.7938056 4.24648611,12.8194444 4.15277778,12.8194444" id="path70" fill="#0F538B"></path>
                                    </g>
                                    <g id="g72" transform="translate(49.246889, 2.945493)">
                                        <path d="M0.722222222,12.2777778 L0.337638889,12.2777778 C0.179652778,12.2777778 0.100930556,12.2012222 0.100930556,12.0482917 L0.100930556,0.316333333 C0.100930556,0.163222222 0.182180556,0.0868472222 0.345041667,0.0868472222 L0.729625,0.0868472222 C0.887430556,0.0868472222 0.966333333,0.163222222 0.966333333,0.316333333 L0.966333333,12.0482917 C0.966333333,12.2012222 0.884902778,12.2777778 0.722222222,12.2777778" id="path74" fill="#0F538B"></path>
                                    </g>
                                    <g id="g76" transform="translate(51.918533, 2.845682)">
                                        <path d="M1.08333333,5.41666667 C1.14725,5.806125 1.26443056,6.17861111 1.43469444,6.53376389 C1.60477778,6.88873611 1.81566667,7.21156944 2.06718056,7.50280556 C2.31869444,7.79368056 2.60704167,8.04519444 2.93258333,8.25716667 C3.258125,8.46913889 3.60822222,8.62459722 3.98305556,8.72318056 C4.20983333,8.78727778 4.402125,8.82808333 4.56011111,8.84523611 C4.71773611,8.86256944 4.88059722,8.87123611 5.04833333,8.87123611 C5.54125,8.87123611 6.01358333,8.78348611 6.46497222,8.60870833 C6.91618056,8.43356944 7.31936111,8.19180556 7.67433333,7.88359722 C8.02948611,7.57538889 8.32415278,7.21066667 8.55833333,6.78888889 C8.79251389,6.36729167 8.93930556,5.90958333 8.99852778,5.41666667 L1.08333333,5.41666667 Z M9.85652778,4.83979167 L9.85652778,4.83238889 C9.84172222,5.32530556 9.77256944,5.78897222 9.64943056,6.22302778 C9.52611111,6.65690278 9.358375,7.05376389 9.14640278,7.41397222 C8.93425,7.774 8.68165278,8.09701389 8.38825,8.38301389 C8.09466667,8.66901389 7.77056944,8.91077778 7.41541667,9.10794444 C7.06044444,9.30511111 6.68181944,9.45551389 6.27990278,9.55915278 C5.87798611,9.66279167 5.46252778,9.71461111 5.03352778,9.71461111 C4.57473611,9.71461111 4.13725,9.65647222 3.72034722,9.54073611 C3.303625,9.42463889 2.91416667,9.26069444 2.55161111,9.04872222 C2.18923611,8.83656944 1.86116667,8.58270833 1.56794444,8.28677778 C1.27436111,7.99102778 1.02411111,7.66277778 0.817013889,7.30293056 C0.609916667,6.94290278 0.449583333,6.55597222 0.336194444,6.14159722 C0.222625,5.72740278 0.165930556,5.29569444 0.165930556,4.84719444 C0.165930556,4.18130556 0.295569444,3.55477778 0.554305556,2.96797222 C0.813222222,2.38116667 1.16331944,1.867125 1.60477778,1.42566667 C2.04623611,0.984388889 2.56154167,0.636638889 3.150875,0.382777778 C3.74002778,0.128916667 4.36763889,0.0018055556 5.03352778,0.0018055556 C5.58097222,0.0018055556 6.08634722,0.0832361112 6.54983333,0.245916667 C7.0135,0.408777778 7.44502778,0.6305 7.84441667,0.911625 C7.95293056,0.985652778 8.04663889,1.0595 8.12554167,1.13352778 C8.20444444,1.20755556 8.27106944,1.27905556 8.32523611,1.34820833 C8.32523611,1.37276389 8.31295833,1.39731944 8.28822222,1.42205556 C8.30790278,1.44173611 8.31783333,1.46159722 8.31783333,1.48127778 C8.31783333,1.51576389 8.29941667,1.56505556 8.26240278,1.62915278 C8.22538889,1.69325 8.16508333,1.78461111 8.081125,1.902875 C8.03183333,1.96697222 7.98741667,1.99911111 7.94805556,1.99911111 C7.91356944,1.99911111 7.87529167,1.98538889 7.83340278,1.95848611 C7.79133333,1.93122222 7.74565278,1.89926389 7.69654167,1.86206944 C7.64725,1.82523611 7.59669444,1.78569444 7.544875,1.74380556 C7.49305556,1.70191667 7.4425,1.66634722 7.39320833,1.63655556 C7.23540278,1.51829167 7.06893056,1.40977778 6.89397222,1.31119444 C6.71883333,1.21243056 6.53376389,1.12738889 6.339125,1.05588889 C6.14430556,0.984388889 5.93341667,0.928958333 5.70663889,0.889597222 C5.47986111,0.849875 5.23575,0.830375 4.97430556,0.830375 C4.52056944,0.830375 4.09030556,0.904222222 3.68351389,1.05227778 C3.27654167,1.20015278 2.90784722,1.40472222 2.57761111,1.66634722 C2.24719444,1.92761111 1.96227778,2.24069444 1.72322222,2.60577778 C1.48398611,2.9705 1.30270833,3.37241667 1.17938889,3.81134722 C1.14490278,3.93466667 1.12395833,4.06647222 1.11655556,4.20730556 C1.10915278,4.34777778 1.09813889,4.45990278 1.08333333,4.54368056 L9.62722222,4.54368056 C9.78502778,4.54368056 9.86393056,4.62763889 9.86393056,4.795375 C9.86393056,4.805125 9.86266667,4.81379167 9.86031944,4.82119444 C9.85779167,4.82859722 9.85652778,4.83455556 9.85652778,4.83979167 Z" id="path78" fill="#0F538B" fill-rule="nonzero"></path>
                                    </g>
                                    <g id="g80" transform="translate(62.008844, 2.835462)">
                                        <path d="M4.15277778,9.56944444 L2.496,9.56944444 L2.496,11.9439306 C2.496,12.0277083 2.47975,12.0941528 2.44815278,12.143625 C2.416375,12.1929167 2.35173611,12.2176528 2.25369444,12.2176528 C2.22444444,12.2176528 2.18183333,12.2089861 2.12568056,12.1916528 C2.06934722,12.1745 2.01427778,12.1559028 1.96065278,12.1362222 C1.90684722,12.1163611 1.86026389,12.0979444 1.82108333,12.0807917 C1.78190278,12.0634583 1.76493056,12.0549722 1.76998611,12.0549722 C1.74561111,12.0450417 1.72340278,12.0327639 1.70390278,12.0179583 C1.66490278,11.9881667 1.64504167,11.9488056 1.64504167,11.8995139 L1.64504167,9.56944444 L0.365444444,9.56944444 C0.281666667,9.56944444 0.219916667,9.55463889 0.180555556,9.52502778 C0.141013889,9.49541667 0.121333333,9.43854167 0.121333333,9.35494444 L0.121333333,9.00719444 C0.121333333,8.92323611 0.141013889,8.86419444 0.180555556,8.82952778 C0.219916667,8.79504167 0.281666667,8.77788889 0.365444444,8.77788889 L1.64504167,8.77788889 L1.64504167,1.94277778 C1.64504167,1.60730556 1.69758333,1.32130556 1.80266667,1.08459722 C1.90775,0.847888889 2.05093056,0.655597222 2.23184722,0.507722222 C2.41276389,0.359666667 2.62293056,0.252416667 2.86216667,0.185791667 C3.10122222,0.119166667 3.354,0.086125 3.62031944,0.086125 C3.64993056,0.086125 3.690375,0.0872083333 3.742375,0.0897361111 C3.79419444,0.0922638889 3.84456944,0.100930556 3.89386111,0.115736111 C3.94333333,0.130361111 3.98522222,0.151486111 4.01988889,0.178388889 C4.054375,0.205652778 4.07170833,0.241402778 4.07170833,0.285638889 L4.07170833,0.352263889 L4.07170833,0.440916667 C4.07170833,0.470527778 4.06918056,0.507722222 4.06430556,0.552138889 L4.06430556,0.529930556 C4.06430556,0.593847222 4.05925,0.651805556 4.0495,0.703625 C4.03956944,0.755444444 4.01356944,0.797333333 3.97186111,0.829472222 C3.92997222,0.861430556 3.86822222,0.885986111 3.78679167,0.9035 C3.70518056,0.920652778 3.59070833,0.929138889 3.44283333,0.929138889 L3.27256944,0.929138889 C3.10013889,0.929138889 2.96327778,0.972472222 2.86216667,1.05877778 C2.760875,1.14508333 2.68323611,1.26081944 2.62906944,1.40634722 C2.57472222,1.551875 2.53897222,1.72069444 2.52181944,1.91316667 C2.50448611,2.10545833 2.496,2.31002778 2.496,2.52705556 L2.496,8.77788889 L4.15277778,8.77788889 C4.31563889,8.77788889 4.39725,8.86419444 4.39725,9.03680556 L4.39725,9.33255556 C4.39725,9.49054167 4.31563889,9.56944444 4.15277778,9.56944444" id="path82" fill="#0F538B"></path>
                                    </g>
                                    <g id="g84" transform="translate(66.787211, 2.845682)">
                                        <path d="M1.08333333,5.41666667 C1.14725,5.806125 1.26461111,6.17861111 1.43469444,6.53376389 C1.60495833,6.88873611 1.81566667,7.21156944 2.06718056,7.50280556 C2.31869444,7.79368056 2.60704167,8.04519444 2.93258333,8.25716667 C3.258125,8.46913889 3.60822222,8.62459722 3.98305556,8.72318056 C4.20983333,8.78727778 4.402125,8.82808333 4.56011111,8.84523611 C4.71791667,8.86256944 4.88059722,8.87123611 5.04833333,8.87123611 C5.54125,8.87123611 6.01376389,8.78348611 6.46497222,8.60870833 C6.91618056,8.43356944 7.31918056,8.19180556 7.67433333,7.88359722 C8.02948611,7.57538889 8.32415278,7.21066667 8.55833333,6.78888889 C8.79251389,6.36729167 8.93930556,5.90958333 8.99852778,5.41666667 L1.08333333,5.41666667 Z M9.85652778,4.83979167 L9.85652778,4.83238889 C9.84172222,5.32530556 9.77256944,5.78897222 9.64943056,6.22302778 C9.52611111,6.65690278 9.358375,7.05376389 9.14640278,7.41397222 C8.93425,7.774 8.68147222,8.09701389 8.38825,8.38301389 C8.09466667,8.66901389 7.77056944,8.91077778 7.41541667,9.10794444 C7.06044444,9.30511111 6.68181944,9.45551389 6.27990278,9.55915278 C5.87798611,9.66279167 5.46252778,9.71461111 5.03352778,9.71461111 C4.57491667,9.71461111 4.13706944,9.65647222 3.72034722,9.54073611 C3.303625,9.42463889 2.91416667,9.26069444 2.55179167,9.04872222 C2.18923611,8.83656944 1.86116667,8.58270833 1.56794444,8.28677778 C1.27436111,7.99102778 1.02411111,7.66277778 0.817013889,7.30293056 C0.609916667,6.94290278 0.449583333,6.55597222 0.336194444,6.14159722 C0.222625,5.72740278 0.166111111,5.29569444 0.166111111,4.84719444 C0.166111111,4.18130556 0.295569444,3.55477778 0.554305556,2.96797222 C0.813402778,2.38116667 1.16331944,1.867125 1.60495833,1.42566667 C2.04605556,0.984388889 2.56154167,0.636638889 3.150875,0.382777778 C3.74020833,0.128916667 4.36763889,0.0018055556 5.03352778,0.0018055556 C5.58079167,0.0018055556 6.08634722,0.0832361112 6.54983333,0.245916667 C7.0135,0.408777778 7.44502778,0.6305 7.84441667,0.911625 C7.95293056,0.985652778 8.04663889,1.0595 8.12554167,1.13352778 C8.20426389,1.20755556 8.27106944,1.27905556 8.32523611,1.34820833 C8.32523611,1.37276389 8.31295833,1.39731944 8.28822222,1.42205556 C8.30808333,1.44173611 8.31783333,1.46159722 8.31783333,1.48127778 C8.31783333,1.51576389 8.29941667,1.56505556 8.26240278,1.62915278 C8.22556944,1.69325 8.16508333,1.78461111 8.08130556,1.902875 C8.03183333,1.96697222 7.98741667,1.99911111 7.94805556,1.99911111 C7.91338889,1.99911111 7.87511111,1.98538889 7.83340278,1.95848611 C7.79133333,1.93122222 7.74565278,1.89926389 7.69654167,1.86206944 C7.64725,1.82523611 7.59669444,1.78569444 7.544875,1.74380556 C7.49305556,1.70191667 7.4425,1.66634722 7.39320833,1.63655556 C7.23522222,1.51829167 7.06893056,1.40977778 6.89397222,1.31119444 C6.71883333,1.21243056 6.53376389,1.12738889 6.339125,1.05588889 C6.144125,0.984388889 5.93341667,0.928958333 5.70663889,0.889597222 C5.47986111,0.849875 5.23556944,0.830375 4.97430556,0.830375 C4.52056944,0.830375 4.09030556,0.904222222 3.68333333,1.05227778 C3.27654167,1.20015278 2.90784722,1.40472222 2.57743056,1.66634722 C2.24701389,1.92761111 1.96227778,2.24069444 1.72322222,2.60577778 C1.48398611,2.9705 1.30270833,3.37241667 1.17938889,3.81134722 C1.14490278,3.93466667 1.12413889,4.06647222 1.11673611,4.20730556 C1.10933333,4.34777778 1.09813889,4.45990278 1.08333333,4.54368056 L9.62722222,4.54368056 C9.78502778,4.54368056 9.86393056,4.62763889 9.86393056,4.795375 C9.86393056,4.805125 9.86266667,4.81379167 9.86013889,4.82119444 C9.85779167,4.82859722 9.85652778,4.83455556 9.85652778,4.83979167 Z" id="path86" fill="#0F538B" fill-rule="nonzero"></path>
                                    </g>
                                    <g id="g88" transform="translate(82.332449, 0.127129)">
                                        <path d="M7.94444444,12.2777778 L7.53765278,12.2777778 C7.39934722,12.2777778 7.30329167,12.2062778 7.249125,12.0632778 C7.10125,11.7030694 6.94073611,11.3098194 6.76830556,10.8833472 C6.59551389,10.4566944 6.41802778,10.0154167 6.23566667,9.55915278 C6.053125,9.10306944 5.86697222,8.64048611 5.67720833,8.17230556 C5.48744444,7.70358333 5.30093056,7.24497222 5.11875,6.79629167 C4.93620833,6.34743056 4.76106944,5.91843056 4.59333333,5.50929167 C4.42577778,5.09979167 4.27284722,4.72748611 4.13472222,4.39219444 C4.00165278,4.707625 3.856125,5.05916667 3.69831944,5.44627778 C3.54051389,5.83338889 3.37422222,6.24036111 3.19908333,6.66683333 C3.02394444,7.09330556 2.84519444,7.52970833 2.66283333,7.97622222 C2.48029167,8.422375 2.30136111,8.86256944 2.12640278,9.296625 C1.95144444,9.7305 1.78244444,10.14975 1.61976389,10.5541944 C1.45690278,10.9584583 1.3065,11.3282361 1.16855556,11.6638889 L0.990888889,12.0928889 C0.956402778,12.1764861 0.894833333,12.2284861 0.806,12.2481667 C0.717347222,12.2676667 0.623458333,12.2777778 0.524875,12.2777778 C0.367069444,12.2777778 0.246277778,12.2665833 0.162319444,12.244375 C0.0787222222,12.2221667 0.0366527778,12.1593333 0.0366527778,12.055875 C0.0366527778,11.9719167 0.0465833333,11.9202778 0.0662638889,11.9004167 L3.6465,3.27527778 L2.50755556,0.412388889 C2.50231944,0.402458333 2.49744444,0.385305556 2.49275,0.360569444 C2.48751389,0.335833333 2.48534722,0.311458333 2.48534722,0.286722222 C2.48534722,0.183083333 2.51965278,0.116638889 2.58880556,0.0868472222 C2.65777778,0.0572361111 2.76881944,0.0424305556 2.92175,0.0424305556 C3.02520833,0.0424305556 3.12523611,0.053625 3.22129167,0.0758333333 C3.31734722,0.0980416667 3.38523611,0.158527778 3.42477778,0.257111111 L8.18873611,11.9004167 C8.18873611,11.9103472 8.19343056,11.9300278 8.20354167,11.9596389 C8.21311111,11.98925 8.21816667,12.0163333 8.21816667,12.0408889 C8.21816667,12.198875 8.12698611,12.2777778 7.94444444,12.2777778" id="path90" fill="#0F538B"></path>
                                    </g>
                                    <g id="g92" transform="translate(91.067889, 2.721207)">
                                        <path d="M8.66666667,3.43055556 C8.45234722,2.942875 8.162375,2.5155 7.79765278,2.14825 C7.43256944,1.78118056 7.00483333,1.49048611 6.51408333,1.27616667 C6.02333333,1.06202778 5.50423611,0.954777778 4.95697222,0.954777778 C4.41440278,0.954777778 3.90523611,1.064375 3.42947222,1.28356944 C2.95334722,1.50276389 2.53806944,1.79851389 2.18309722,2.17045833 C1.82794444,2.54240278 1.54790278,2.97356944 1.34333333,3.46395833 C1.13876389,3.95398611 1.03638889,4.46766667 1.03638889,5.00481944 C1.03638889,5.54179167 1.142375,6.05168056 1.35452778,6.53448611 C1.5665,7.01747222 1.8525,7.4425 2.21252778,7.80938889 C2.57255556,8.17645833 2.99054167,8.46841667 3.46630556,8.68526389 C3.94225,8.90211111 4.44401389,9.01044444 4.97177778,9.01044444 L4.99398611,9.01044444 C5.52644444,9.00556944 6.03452778,8.89470833 6.517875,8.67786111 C7.00104167,8.46101389 7.42516667,8.16905556 7.79025,7.80216667 C8.15497222,7.43509722 8.44584722,7.00880556 8.662875,6.52365278 C8.88008333,6.03813889 8.98841667,5.52698611 8.98841667,4.99001389 C8.98841667,4.43823611 8.88116667,3.91823611 8.66666667,3.43055556 M9.55806944,9.67633333 L9.17348611,9.67633333 C9.02055556,9.67633333 8.94418056,9.59725 8.94418056,9.43944444 L8.94418056,8.16706944 L8.94418056,7.61980556 C8.74195833,7.96015278 8.49893056,8.26818056 8.21545833,8.54443056 C7.93198611,8.82068056 7.61998611,9.05594444 7.27963889,9.25076389 C6.93947222,9.44558333 6.57565278,9.59490278 6.18854167,9.69854167 C5.80143056,9.802 5.40565278,9.85381944 5.00138889,9.85381944 C4.55740278,9.85381944 4.12966667,9.79586111 3.718,9.67994444 C3.30615278,9.56402778 2.920125,9.39881944 2.56027778,9.18431944 C2.20025,8.96981944 1.87218056,8.71469444 1.57625,8.41876389 C1.2805,8.12283333 1.025375,7.79476389 0.810694444,7.43491667 C0.596375,7.07488889 0.430986111,6.68886111 0.315069444,6.27719444 C0.199333333,5.86534722 0.141194444,5.43761111 0.141194444,4.993625 C0.141194444,4.54981944 0.199333333,4.12190278 0.315069444,3.71023611 C0.430986111,3.29856944 0.594930556,2.91254167 0.807083333,2.55269444 C1.01905556,2.19266667 1.27436111,1.86459722 1.57263889,1.56866667 C1.87091667,1.27291667 2.20025,1.01779167 2.56027778,0.803111111 C2.920125,0.588611111 3.30615278,0.423402778 3.718,0.307486111 C4.12966667,0.19175 4.55740278,0.133611111 5.00138889,0.133611111 C5.41558333,0.133611111 5.81515278,0.185430556 6.19973611,0.289069444 C6.5845,0.392527778 6.94561111,0.540583333 7.28343056,0.732875 C7.62125,0.925166667 7.92945833,1.15826389 8.20805556,1.43198611 C8.48665278,1.70552778 8.724625,2.01247222 8.92197222,2.35281944 L8.94418056,1.79075 L8.94418056,0.577416667 C8.94418056,0.399930556 9.04023611,0.311277778 9.23270833,0.311277778 L9.53586111,0.311277778 C9.61006944,0.311277778 9.67398611,0.329694444 9.72833333,0.366708333 C9.7825,0.403541667 9.80958333,0.464027778 9.80958333,0.547986111 L9.80958333,9.43944444 C9.80958333,9.59725 9.725625,9.67633333 9.55806944,9.67633333" id="path94" fill="#0F538B" fill-rule="nonzero"></path>
                                    </g>
                                    <g id="g96" transform="translate(16.589679, 6.546024)">
                                        <path d="M1.80555556,3.61111111 C0.840125,3.61111111 0.0574166667,2.82858333 0.0574166667,1.86315278 C0.0574166667,0.897722222 0.840125,0.115194444 1.80555556,0.115194444 C2.77116667,0.115194444 3.55369444,0.897722222 3.55369444,1.86315278 C3.55369444,2.82858333 2.77116667,3.61111111 1.80555556,3.61111111" id="path98" fill="#0F538B"></path>
                                    </g>
                                    <g id="g100" transform="translate(105.465786, 6.546024)">
                                        <path d="M1.80555556,3.61111111 C0.840125,3.61111111 0.0572361111,2.82858333 0.0572361111,1.86315278 C0.0572361111,0.897722222 0.840125,0.115194444 1.80555556,0.115194444 C2.77116667,0.115194444 3.553875,0.897722222 3.553875,1.86315278 C3.553875,2.82858333 2.77116667,3.61111111 1.80555556,3.61111111" id="path102" fill="#0F538B"></path>
                                    </g>
                                </g>
                            </g>
                        </g>
                    </g>
                </g>
            </g>
        </g>
    </g>
</svg>