<svg width="13px" height="14px" viewBox="0 0 13 14" version="1.1" xmlns="http://www.w3.org/2000/svg" xmlns:xlink="http://www.w3.org/1999/xlink">
    <g id="Page-1" stroke="none" stroke-width="1" fill="none" fill-rule="evenodd">
        <g id="Registro" transform="translate(-55.000000, -215.000000)" fill="#084B8A">
            <path d="M66.508,225.481884 L63.1666667,224.64655 L63.1666667,223.441967 C64.212,222.6638 64.9166667,221.274884 64.9166667,219.979884 L64.9166667,217.93355 C64.9166667,216.97105 64.1326667,216.18355 63.1660833,216.18355 L62.9479167,216.18355 L62.4888333,215.2648 C62.378,215.04255 62.1114167,214.943384 61.888,215.032634 L59.13525,216.133384 C58.4620833,216.402884 57.9166667,217.20905 57.9166667,217.934134 L57.9166667,219.979884 C57.9166667,221.274884 58.6213333,222.6638 59.6666667,223.441967 L59.6666667,224.64655 L56.3253333,225.481884 C55.5465833,225.676717 55,226.376717 55,227.179384 L55,228.729884 L67.8333333,228.729884 L67.8333333,227.179384 C67.8333333,226.376717 67.28675,225.676717 66.508,225.481884 Z" id="Shape"></path>
        </g>
    </g>
</svg>